<svg id="svg" version="1.1" xmlns="http://www.w3.org/2000/svg" xmlns:xlink="http://www.w3.org/1999/xlink" width="400" height="209.06017579445572" viewBox="0, 0, 400,209.06017579445572"><g id="svgg"><path id="path0" d="M188.204 29.918 C 187.236 30.011,186.201 30.181,185.904 30.295 C 185.606 30.409,184.658 30.613,183.795 30.748 C 182.933 30.884,182.133 31.052,182.018 31.122 C 181.903 31.191,181.715 31.263,181.600 31.282 C 180.421 31.473,176.195 32.861,176.093 33.089 C 176.055 33.176,175.868 33.246,175.678 33.246 C 175.488 33.246,174.861 33.469,174.284 33.741 C 172.143 34.752,170.075 35.798,169.263 36.282 C 168.803 36.556,168.121 36.943,167.747 37.143 C 167.373 37.342,167.067 37.582,167.067 37.676 C 167.067 37.770,166.962 37.846,166.833 37.846 C 165.801 37.846,159.188 43.400,156.105 46.857 C 153.432 49.853,153.412 49.902,154.469 50.820 C 155.215 51.467,158.508 54.433,158.996 54.897 C 159.123 55.018,161.249 56.943,163.722 59.176 C 166.194 61.409,168.265 63.292,168.322 63.359 C 168.380 63.426,170.403 65.260,172.818 67.433 C 175.233 69.607,177.726 71.871,178.359 72.464 C 180.718 74.677,184.476 77.993,184.626 77.993 C 184.712 77.993,185.135 77.460,185.567 76.810 C 189.160 71.398,195.094 69.255,200.105 71.559 C 205.684 74.125,207.410 76.950,207.174 83.123 L 207.084 85.489 207.889 84.574 C 212.444 79.400,220.988 79.420,223.960 84.612 C 225.513 87.326,225.539 89.783,224.038 92.051 C 223.752 92.484,223.550 92.838,223.589 92.838 C 223.629 92.838,224.403 92.415,225.311 91.898 C 231.329 88.469,235.314 88.835,237.815 93.048 C 238.122 93.565,238.562 94.225,238.792 94.513 C 239.585 95.504,239.535 98.179,238.669 101.140 C 238.582 101.437,239.124 101.020,240.187 99.973 C 241.401 98.777,242.255 98.145,243.402 97.593 C 245.192 96.732,245.309 96.539,245.709 93.779 C 245.842 92.859,246.023 92.013,246.112 91.898 C 246.734 91.086,246.882 78.231,246.302 75.379 C 246.185 74.804,245.950 73.487,245.781 72.452 C 245.496 70.710,244.946 68.528,244.412 67.015 C 244.290 66.670,244.098 66.059,243.986 65.656 C 243.283 63.138,239.621 55.315,238.799 54.574 C 238.735 54.516,238.499 54.140,238.275 53.738 C 236.664 50.844,232.672 46.161,228.731 42.541 C 227.458 41.372,224.206 38.892,223.946 38.892 C 223.828 38.892,223.732 38.796,223.732 38.679 C 223.732 38.562,223.382 38.304,222.955 38.104 C 222.527 37.905,222.009 37.577,221.805 37.376 C 221.600 37.175,221.299 37.010,221.136 37.010 C 220.973 37.010,220.809 36.921,220.770 36.812 C 220.715 36.653,215.264 33.732,215.264 33.860 C 215.264 33.904,213.815 33.321,212.964 32.936 C 212.619 32.779,212.061 32.582,211.723 32.498 C 211.386 32.414,210.868 32.219,210.573 32.065 C 210.278 31.911,209.884 31.785,209.698 31.784 C 209.512 31.783,208.763 31.592,208.034 31.359 C 207.305 31.126,206.046 30.836,205.236 30.713 C 204.426 30.591,203.576 30.410,203.346 30.311 C 202.052 29.755,192.477 29.506,188.204 29.918 M142.534 78.550 C 142.457 78.627,142.394 80.057,142.394 81.729 C 142.394 85.204,142.470 85.243,143.529 82.310 C 144.307 80.158,144.306 80.129,143.401 79.069 C 142.801 78.366,142.749 78.335,142.534 78.550 M145.024 85.213 C 143.768 85.950,142.674 86.660,142.593 86.791 C 142.415 87.078,142.594 89.721,142.811 90.016 C 142.896 90.131,143.030 90.883,143.108 91.688 C 143.370 94.372,143.652 94.776,144.064 93.058 C 144.493 91.272,144.910 91.170,145.391 92.734 C 145.568 93.309,146.033 94.673,146.425 95.766 L 147.136 97.752 148.372 97.884 C 149.052 97.956,151.851 98.081,154.593 98.161 L 159.578 98.306 158.151 96.566 C 157.367 95.608,156.662 94.778,156.585 94.720 C 156.456 94.624,155.444 93.416,149.608 86.395 C 148.458 85.011,147.470 83.878,147.412 83.876 C 147.355 83.874,146.280 84.476,145.024 85.213 M179.613 84.161 C 179.211 84.316,178.975 84.457,179.090 84.475 C 179.205 84.492,179.465 84.538,179.666 84.577 C 179.868 84.615,179.983 84.565,179.920 84.464 C 179.858 84.364,180.117 84.192,180.494 84.083 C 180.880 83.972,180.998 83.884,180.763 83.882 C 180.533 83.881,180.016 84.006,179.613 84.161 M180.136 85.938 C 180.314 86.283,180.507 86.566,180.565 86.566 C 180.622 86.566,180.523 86.283,180.345 85.938 C 180.167 85.593,179.974 85.311,179.916 85.311 C 179.859 85.311,179.958 85.593,180.136 85.938 M187.036 86.147 C 187.485 86.607,187.900 86.984,187.957 86.984 C 188.015 86.984,187.694 86.607,187.245 86.147 C 186.796 85.687,186.381 85.311,186.324 85.311 C 186.266 85.311,186.587 85.687,187.036 86.147 M176.359 86.200 L 175.745 86.879 176.424 86.265 C 176.798 85.927,177.104 85.622,177.104 85.586 C 177.104 85.424,176.931 85.566,176.359 86.200 M181.703 86.722 C 181.977 87.096,182.234 87.402,182.274 87.402 C 182.432 87.402,181.914 86.618,181.571 86.339 C 181.345 86.156,181.396 86.302,181.703 86.722 M182.686 88.340 C 182.877 88.741,183.071 89.032,183.116 88.987 C 183.212 88.891,182.577 87.611,182.434 87.611 C 182.381 87.611,182.495 87.939,182.686 88.340 M183.505 90.434 C 183.676 91.203,183.796 91.370,183.792 90.835 C 183.790 90.614,183.693 90.293,183.576 90.120 C 183.421 89.891,183.402 89.976,183.505 90.434 M189.291 91.479 C 189.293 92.054,189.334 92.265,189.382 91.947 C 189.430 91.629,189.428 91.159,189.379 90.901 C 189.329 90.644,189.290 90.904,189.291 91.479 M181.774 92.629 C 181.774 93.492,181.811 93.845,181.856 93.413 C 181.902 92.982,181.902 92.277,181.856 91.845 C 181.811 91.414,181.774 91.767,181.774 92.629 M183.860 92.525 C 183.861 93.215,183.900 93.472,183.947 93.096 C 183.993 92.720,183.992 92.156,183.944 91.842 C 183.897 91.527,183.859 91.835,183.860 92.525 M176.581 97.020 C 177.030 97.480,177.445 97.857,177.503 97.857 C 177.560 97.857,177.240 97.480,176.790 97.020 C 176.341 96.560,175.927 96.184,175.869 96.184 C 175.812 96.184,176.132 96.560,176.581 97.020 M181.287 99.164 C 181.286 99.365,182.727 99.341,183.266 99.130 C 183.527 99.028,183.241 98.976,182.483 98.988 C 181.826 98.998,181.288 99.077,181.287 99.164 M153.529 115.593 C 153.168 115.822,156.010 119.287,158.441 121.577 C 159.152 122.248,161.095 124.021,161.631 124.489 C 162.564 125.304,164.785 126.921,164.970 126.921 C 165.089 126.921,165.186 126.999,165.186 127.095 C 165.186 127.191,165.680 127.580,166.283 127.961 C 166.887 128.342,167.616 128.803,167.904 128.987 C 168.911 129.630,169.283 129.829,171.772 131.060 C 175.264 132.787,176.080 133.140,176.962 133.305 C 177.385 133.385,177.731 133.518,177.731 133.602 C 177.731 133.686,178.272 133.882,178.934 134.037 C 179.595 134.192,180.186 134.392,180.248 134.480 C 180.309 134.568,181.297 134.804,182.443 135.004 C 183.589 135.204,184.575 135.435,184.633 135.518 C 184.692 135.601,185.915 135.777,187.351 135.910 C 188.788 136.042,190.296 136.247,190.703 136.364 C 191.428 136.573,197.480 136.483,199.477 136.234 C 199.995 136.169,201.265 136.019,202.300 135.899 C 203.335 135.779,204.370 135.601,204.600 135.504 C 204.830 135.406,205.865 135.162,206.900 134.962 C 207.935 134.762,208.876 134.531,208.991 134.449 C 209.106 134.367,209.669 134.185,210.243 134.045 C 210.816 133.905,211.381 133.720,211.497 133.634 C 211.614 133.549,212.133 133.350,212.650 133.194 C 213.168 133.038,213.688 132.838,213.805 132.752 C 213.923 132.665,214.488 132.435,215.060 132.242 C 215.632 132.048,216.147 131.825,216.205 131.746 C 216.262 131.667,216.639 131.472,217.041 131.312 C 217.444 131.153,217.820 130.965,217.878 130.896 C 217.935 130.826,218.500 130.519,219.132 130.213 C 222.175 128.741,223.338 127.722,222.728 127.062 C 221.476 125.709,221.335 125.059,221.223 120.125 L 221.119 115.525 198.955 115.525 L 176.790 115.525 176.686 120.230 C 176.540 126.810,175.419 128.662,171.284 129.151 C 166.697 129.695,164.558 126.599,164.558 119.414 L 164.558 115.421 159.174 115.424 C 156.213 115.426,153.673 115.502,153.529 115.593 M233.490 115.560 C 233.285 115.766,233.320 118.557,233.529 118.557 C 233.626 118.557,233.932 118.260,234.208 117.897 C 234.484 117.534,234.810 117.134,234.933 117.008 C 235.401 116.529,235.855 115.695,235.721 115.561 C 235.539 115.379,233.672 115.378,233.490 115.560 M245.588 149.854 C 245.016 149.906,244.452 150.022,244.334 150.113 C 244.216 150.203,243.531 150.398,242.812 150.546 C 242.094 150.694,241.505 150.881,241.505 150.963 C 241.505 151.044,241.151 151.216,240.717 151.346 C 238.970 151.869,234.677 155.397,234.286 156.631 C 234.216 156.851,234.083 157.031,233.989 157.031 C 233.896 157.031,233.696 157.337,233.545 157.710 C 233.394 158.084,233.161 158.458,233.026 158.541 C 232.891 158.624,232.662 159.118,232.516 159.639 C 232.370 160.159,232.181 160.585,232.095 160.585 C 232.009 160.585,231.814 161.150,231.661 161.840 C 231.508 162.530,231.318 163.095,231.238 163.095 C 231.159 163.095,230.987 163.918,230.857 164.924 C 230.727 165.930,230.518 167.482,230.392 168.372 C 230.227 169.546,230.227 170.436,230.394 171.613 C 230.521 172.506,230.728 173.968,230.854 174.864 C 230.980 175.760,231.217 176.748,231.380 177.060 C 231.542 177.372,231.677 177.768,231.678 177.940 C 231.679 178.113,231.801 178.489,231.949 178.777 C 232.096 179.064,232.386 179.746,232.592 180.293 C 232.798 180.839,233.053 181.286,233.159 181.286 C 233.264 181.286,233.351 181.406,233.351 181.553 C 233.351 181.819,235.080 184.056,236.069 185.068 C 236.887 185.905,238.950 187.355,239.687 187.612 C 240.055 187.740,240.480 187.968,240.632 188.120 C 240.784 188.271,241.030 188.395,241.180 188.395 C 241.329 188.395,242.051 188.595,242.785 188.840 C 244.548 189.427,249.831 189.496,251.333 188.952 C 251.850 188.764,252.415 188.608,252.588 188.605 C 252.760 188.603,253.372 188.369,253.947 188.086 C 254.522 187.803,255.078 187.569,255.183 187.565 C 256.646 187.515,261.646 182.256,262.399 179.975 C 262.540 179.549,262.732 179.153,262.827 179.094 C 262.923 179.035,263.118 178.493,263.261 177.889 C 263.404 177.285,263.592 176.743,263.679 176.686 C 264.372 176.227,264.824 168.372,264.341 165.186 C 264.086 163.499,263.114 159.973,262.843 159.749 C 262.774 159.692,262.534 159.221,262.311 158.704 C 262.087 158.186,261.845 157.716,261.773 157.658 C 261.700 157.601,261.602 157.430,261.553 157.279 C 261.198 156.169,257.165 152.222,256.387 152.222 C 256.252 152.222,256.142 152.144,256.142 152.049 C 256.142 151.798,253.907 150.815,252.692 150.533 C 252.117 150.400,251.489 150.211,251.296 150.114 C 250.869 149.899,247.029 149.724,245.588 149.854 M332.671 150.332 C 331.119 150.418,329.072 150.559,328.123 150.645 L 326.398 150.801 326.398 169.680 L 326.398 188.559 327.078 188.663 C 327.452 188.720,327.953 188.816,328.192 188.876 C 331.218 189.635,340.452 189.059,344.282 187.873 C 345.881 187.378,349.359 185.732,350.026 185.154 C 352.081 183.375,354.626 180.238,354.626 179.484 C 354.626 179.344,354.705 179.198,354.801 179.160 C 355.078 179.050,356.062 176.286,356.315 174.909 C 356.441 174.219,356.654 173.428,356.788 173.152 C 357.125 172.454,357.120 165.011,356.782 164.329 C 356.645 164.052,356.431 163.319,356.307 162.699 C 356.006 161.195,354.730 158.359,353.809 157.148 C 353.049 156.150,350.270 153.538,349.601 153.194 C 349.202 152.989,348.641 152.692,348.353 152.533 C 347.382 151.996,345.953 151.423,345.217 151.275 C 344.814 151.194,344.391 151.055,344.276 150.965 C 343.632 150.463,336.914 150.096,332.671 150.332 M186.912 150.676 C 186.798 150.814,186.742 158.526,186.774 169.704 L 186.827 188.500 189.493 188.558 L 192.159 188.617 192.159 179.829 L 192.159 171.040 200.836 171.040 L 209.514 171.040 209.514 179.822 L 209.514 188.604 212.232 188.604 L 214.950 188.604 214.950 169.577 C 214.950 157.036,214.879 150.546,214.741 150.541 C 214.626 150.537,213.427 150.531,212.075 150.526 L 209.618 150.519 209.564 158.375 L 209.509 166.231 200.834 166.231 L 192.159 166.231 192.159 158.402 L 192.159 150.573 189.631 150.509 C 187.961 150.466,187.039 150.523,186.912 150.676 M280.397 169.524 L 280.397 188.604 282.820 188.604 L 285.242 188.604 285.172 173.288 L 285.102 157.972 286.174 160.063 C 287.774 163.182,288.226 164.025,288.359 164.140 C 288.426 164.198,288.625 164.527,288.801 164.872 C 289.237 165.724,290.888 168.524,292.007 170.308 C 292.512 171.113,293.117 172.101,293.354 172.504 C 293.590 172.906,294.299 174.073,294.931 175.096 C 295.563 176.120,296.079 176.995,296.079 177.041 C 296.079 177.087,296.460 177.698,296.926 178.399 C 297.392 179.100,297.922 179.966,298.105 180.323 C 298.288 180.680,298.495 181.019,298.566 181.077 C 298.636 181.134,298.853 181.464,299.049 181.809 C 299.687 182.933,300.264 183.882,300.894 184.841 C 301.234 185.358,301.617 186.040,301.744 186.357 C 301.871 186.673,302.046 186.932,302.132 186.932 C 302.218 186.932,302.459 187.308,302.666 187.768 L 303.043 188.604 305.730 188.604 L 308.416 188.604 308.416 169.524 L 308.416 150.444 306.064 150.482 L 303.711 150.520 303.711 165.455 L 303.711 180.390 302.914 178.799 C 301.815 176.607,298.867 171.443,296.991 168.427 C 296.134 167.047,295.370 165.776,295.296 165.604 C 295.221 165.431,295.080 165.196,294.983 165.081 C 294.886 164.966,294.486 164.354,294.093 163.722 C 293.700 163.089,293.281 162.458,293.160 162.318 C 293.040 162.179,292.827 161.803,292.688 161.482 C 292.548 161.161,292.220 160.608,291.957 160.252 C 291.694 159.896,291.479 159.539,291.479 159.459 C 291.479 159.379,291.382 159.200,291.263 159.061 C 290.986 158.737,289.094 155.772,288.901 155.358 C 288.820 155.186,288.477 154.621,288.138 154.104 C 287.580 153.254,287.031 152.348,286.312 151.096 C 286.078 150.689,285.832 150.645,283.227 150.549 L 280.396 150.444 280.397 169.524 M251.220 154.920 C 251.676 155.161,252.162 155.358,252.301 155.358 C 252.439 155.358,252.584 155.429,252.622 155.515 C 252.661 155.601,253.078 155.922,253.549 156.229 C 255.143 157.265,257.810 161.061,257.814 162.298 C 257.814 162.493,257.896 162.702,257.994 162.763 C 258.093 162.823,258.288 163.464,258.429 164.186 C 258.570 164.908,258.779 165.732,258.894 166.016 C 259.163 166.682,259.162 172.762,258.892 173.268 C 258.780 173.480,258.580 174.219,258.448 174.909 C 257.973 177.395,255.091 182.480,254.129 182.529 C 253.999 182.535,253.764 182.696,253.606 182.887 C 252.891 183.751,250.276 184.690,248.300 184.794 C 244.860 184.974,242.677 184.174,240.475 181.927 C 238.546 179.959,237.906 178.989,237.297 177.104 C 237.167 176.702,236.987 176.278,236.898 176.163 C 236.735 175.953,236.415 174.340,236.151 172.399 C 235.974 171.095,235.979 168.552,236.162 167.172 C 236.461 164.915,236.770 163.189,236.911 162.990 C 236.993 162.875,237.180 162.405,237.327 161.945 C 237.473 161.485,237.650 161.061,237.720 161.004 C 237.789 160.946,238.048 160.471,238.294 159.948 C 239.105 158.223,242.385 155.149,243.415 155.149 C 243.579 155.149,243.901 155.017,244.131 154.856 C 245.131 154.155,249.855 154.198,251.220 154.920 M340.149 154.708 C 340.349 154.811,341.099 155.003,341.817 155.134 C 342.980 155.348,344.782 156.074,346.254 156.922 C 352.132 160.307,353.490 172.653,348.705 179.195 C 347.914 180.276,346.603 181.704,346.401 181.704 C 346.351 181.704,345.756 182.074,345.078 182.527 C 343.955 183.277,342.112 183.953,339.885 184.433 C 338.932 184.638,332.249 184.697,331.747 184.505 C 331.450 184.390,331.417 182.888,331.417 169.659 L 331.417 154.940 332.136 154.940 C 332.532 154.940,332.914 154.846,332.985 154.731 C 333.147 154.468,339.642 154.448,340.149 154.708 " stroke="none" fill="#3c8304" fill-rule="evenodd"></path><path id="path1" d="M131.730 31.340 C 131.558 31.435,130.622 31.620,129.651 31.752 C 128.680 31.885,127.834 32.065,127.769 32.153 C 127.705 32.240,127.185 32.434,126.612 32.582 C 126.040 32.730,125.523 32.922,125.462 33.007 C 125.402 33.093,124.913 33.328,124.376 33.529 C 123.839 33.731,123.286 34.032,123.148 34.198 C 123.010 34.365,122.799 34.501,122.679 34.501 C 122.559 34.501,122.312 34.639,122.129 34.809 C 121.947 34.978,121.398 35.468,120.910 35.898 C 120.421 36.328,120.021 36.801,120.021 36.949 C 120.021 37.098,119.925 37.219,119.808 37.219 C 119.692 37.219,119.433 37.572,119.233 38.003 C 119.034 38.434,118.757 38.908,118.618 39.055 C 118.478 39.203,118.303 39.650,118.229 40.049 C 118.154 40.447,118.020 40.774,117.932 40.774 C 117.091 40.774,117.190 48.358,118.044 49.288 C 118.269 49.533,118.829 50.174,119.289 50.712 C 119.749 51.250,120.267 51.848,120.439 52.041 C 120.612 52.234,121.005 52.718,121.313 53.117 C 121.621 53.516,122.091 54.093,122.358 54.400 C 123.626 55.856,123.845 56.247,123.394 56.247 C 123.294 56.247,123.089 56.694,122.939 57.240 C 122.788 57.786,122.612 58.280,122.546 58.338 C 122.413 58.453,121.522 60.889,121.341 61.631 C 121.166 62.349,123.216 61.746,123.994 60.851 C 124.051 60.785,124.498 60.554,124.987 60.339 C 125.476 60.123,125.876 59.874,125.876 59.785 C 125.876 59.340,126.662 59.518,127.161 60.076 C 127.752 60.737,127.737 61.002,127.021 62.624 C 126.869 62.969,126.675 63.534,126.591 63.879 C 126.507 64.224,126.380 64.553,126.308 64.611 C 126.129 64.754,125.457 66.968,125.457 67.414 C 125.457 67.768,126.226 67.714,126.503 67.341 C 126.560 67.263,127.266 66.837,128.071 66.394 C 128.876 65.950,129.582 65.532,129.639 65.465 C 130.232 64.771,131.173 64.686,131.583 65.290 C 131.758 65.549,132.203 66.084,132.571 66.478 C 133.341 67.305,133.346 68.284,132.587 69.767 C 132.360 70.208,132.112 70.923,132.034 71.354 C 131.956 71.785,131.822 72.138,131.735 72.138 C 131.599 72.138,130.894 74.299,130.894 74.713 C 130.894 74.908,131.469 74.896,131.556 74.699 C 131.594 74.613,131.971 74.354,132.393 74.124 C 134.058 73.218,136.022 72.062,136.121 71.932 C 136.508 71.422,136.990 71.569,137.509 72.353 C 137.811 72.810,138.137 73.183,138.233 73.183 C 138.328 73.183,138.514 73.384,138.646 73.630 C 138.897 74.100,138.533 76.529,138.211 76.529 C 138.126 76.529,137.937 76.976,137.790 77.522 C 137.643 78.068,137.356 78.895,137.151 79.359 C 136.488 80.863,136.433 81.338,136.923 81.338 C 137.158 81.338,137.410 81.243,137.482 81.126 C 137.555 81.009,137.936 80.779,138.331 80.614 C 138.726 80.449,139.049 80.223,139.049 80.111 C 139.049 79.999,139.330 79.846,139.674 79.771 C 140.017 79.695,140.353 79.545,140.420 79.437 C 140.599 79.147,142.207 78.363,142.343 78.499 C 142.407 78.564,142.569 78.526,142.702 78.416 C 142.870 78.276,143.186 78.504,143.734 79.160 L 144.523 80.104 143.638 82.516 C 143.152 83.843,142.626 84.978,142.469 85.038 C 142.313 85.098,142.185 85.319,142.185 85.530 C 142.185 85.741,142.091 85.972,141.976 86.043 C 141.654 86.242,141.728 86.984,142.070 86.984 C 142.237 86.984,142.449 86.852,142.541 86.691 C 142.816 86.209,147.253 83.645,147.534 83.805 C 147.676 83.886,148.859 85.233,150.164 86.800 C 152.180 89.221,157.760 95.856,159.271 97.627 C 159.526 97.926,159.737 98.251,159.742 98.350 C 159.749 98.528,150.167 98.365,148.109 98.152 L 147.028 98.040 145.937 94.916 C 144.664 91.269,144.858 91.490,144.282 93.033 C 144.026 93.715,143.695 94.320,143.545 94.377 C 143.395 94.435,143.208 94.865,143.128 95.333 C 143.049 95.801,142.911 96.184,142.820 96.184 C 142.730 96.184,142.598 96.470,142.528 96.820 L 142.401 97.456 140.682 97.395 L 138.964 97.334 138.647 96.289 C 138.473 95.714,138.272 95.196,138.201 95.139 C 138.129 95.081,137.955 94.565,137.812 93.991 C 137.670 93.418,137.480 92.853,137.389 92.737 C 137.299 92.620,137.163 92.266,137.087 91.950 C 136.846 90.941,136.241 91.214,135.925 92.473 C 135.773 93.076,135.577 93.664,135.490 93.779 C 135.402 93.894,135.160 94.600,134.953 95.348 C 134.460 97.126,134.335 97.229,132.671 97.229 C 131.049 97.229,130.857 97.091,130.498 95.664 C 130.354 95.091,130.159 94.526,130.065 94.409 C 129.970 94.293,129.724 93.586,129.517 92.838 C 128.979 90.898,128.498 90.455,128.266 91.688 C 128.191 92.091,128.058 92.420,127.972 92.420 C 127.885 92.420,127.695 92.985,127.548 93.675 C 127.402 94.365,127.210 94.929,127.121 94.929 C 127.032 94.929,126.839 95.400,126.692 95.975 L 126.424 97.020 124.826 97.020 L 123.228 97.020 122.999 96.132 C 122.653 94.794,121.819 92.534,121.641 92.455 C 121.555 92.417,121.485 92.211,121.485 91.997 C 121.485 90.719,120.578 91.575,120.206 93.204 C 120.067 93.808,119.895 94.302,119.822 94.302 C 119.750 94.302,119.510 94.961,119.289 95.766 C 119.069 96.571,118.814 97.229,118.723 97.229 C 118.632 97.229,118.557 97.414,118.557 97.639 C 118.557 97.906,118.214 98.249,117.572 98.625 C 116.382 99.323,114.997 100.660,114.578 101.516 C 114.409 101.861,114.213 102.190,114.141 102.248 C 113.410 102.833,113.418 110.298,114.150 110.821 C 114.231 110.878,114.466 111.560,114.673 112.337 C 114.880 113.113,115.125 113.748,115.218 113.748 C 115.311 113.748,115.450 114.031,115.526 114.377 C 115.820 115.717,114.482 115.630,134.777 115.630 C 146.964 115.630,153.267 115.559,153.267 115.421 C 153.267 115.286,155.317 115.212,158.997 115.212 L 164.727 115.212 164.805 119.864 C 164.882 124.449,164.892 124.532,165.453 125.607 C 167.332 129.208,171.465 130.117,174.490 127.594 C 176.280 126.101,176.686 124.552,176.686 119.206 L 176.686 115.210 199.007 115.263 L 221.328 115.316 221.436 120.021 C 221.550 124.945,221.624 125.369,222.596 126.644 C 222.876 127.011,223.188 127.529,223.289 127.797 C 223.402 128.092,223.792 128.397,224.283 128.572 C 224.728 128.732,225.159 128.966,225.241 129.094 C 225.484 129.472,228.739 129.357,229.482 128.944 C 229.827 128.753,230.204 128.595,230.319 128.594 C 230.847 128.588,232.664 126.502,232.869 125.666 C 232.939 125.379,233.094 125.080,233.213 125.003 C 233.526 124.798,233.685 118.766,233.377 118.766 C 233.221 118.766,233.142 118.167,233.142 116.989 L 233.142 115.212 234.501 115.212 C 235.267 115.212,235.860 115.303,235.860 115.421 C 235.860 115.656,274.585 115.727,274.820 115.492 C 275.066 115.246,274.259 114.850,272.974 114.587 C 272.284 114.446,271.626 114.256,271.511 114.166 C 271.396 114.076,270.737 113.888,270.047 113.748 C 269.357 113.608,268.698 113.421,268.583 113.332 C 268.468 113.243,267.574 113.003,266.597 112.799 C 265.619 112.595,264.726 112.358,264.611 112.272 C 264.496 112.185,263.790 111.997,263.042 111.852 C 262.295 111.708,261.636 111.521,261.579 111.438 C 261.521 111.354,260.674 111.124,259.697 110.927 C 258.719 110.729,257.825 110.494,257.710 110.403 C 257.595 110.313,256.942 110.124,256.259 109.984 C 255.576 109.844,254.870 109.652,254.691 109.558 C 254.512 109.464,254.190 109.333,253.977 109.266 C 253.660 109.166,253.621 109.039,253.768 108.571 C 254.073 107.593,253.899 105.070,253.459 104.088 C 253.237 103.593,252.985 102.953,252.898 102.666 C 252.811 102.378,252.680 102.096,252.606 102.039 C 252.532 101.981,252.294 101.531,252.076 101.039 C 251.626 100.018,249.569 97.828,248.581 97.317 C 246.276 96.124,243.182 97.221,240.096 100.325 C 239.146 101.280,238.369 101.952,238.369 101.819 C 238.369 101.685,238.522 100.998,238.709 100.292 C 239.156 98.602,239.197 95.633,238.783 94.919 C 236.675 91.281,235.618 90.283,233.447 89.879 C 231.128 89.448,227.052 90.756,223.973 92.921 C 222.669 93.837,222.412 93.796,223.273 92.808 C 225.904 89.793,225.245 84.857,221.906 82.559 C 217.769 79.713,212.186 80.528,208.219 84.560 C 207.586 85.203,207.020 85.729,206.962 85.729 C 206.903 85.729,206.901 84.621,206.957 83.267 C 207.078 80.321,206.778 78.291,205.972 76.602 C 205.426 75.457,203.822 73.602,203.378 73.602 C 203.269 73.602,202.665 73.260,202.035 72.842 C 196.443 69.130,189.202 71.023,185.565 77.149 C 184.789 78.457,184.624 78.453,183.185 77.104 C 181.797 75.803,179.138 73.383,174.281 69.000 C 172.326 67.236,169.833 64.975,168.740 63.976 C 167.648 62.977,164.072 59.739,160.795 56.780 C 153.532 50.223,153.361 50.051,153.706 49.635 C 153.849 49.464,153.879 49.339,153.773 49.360 C 153.290 49.451,152.996 49.281,152.039 48.353 C 150.936 47.284,148.340 44.934,147.286 44.050 C 146.930 43.751,146.215 43.103,145.699 42.611 C 145.183 42.118,143.969 40.995,143.002 40.114 C 142.035 39.234,140.727 38.042,140.094 37.464 C 139.462 36.886,138.709 36.215,138.421 35.971 C 138.134 35.728,137.368 35.039,136.719 34.440 C 136.071 33.841,135.005 32.857,134.351 32.253 C 133.164 31.158,132.491 30.923,131.730 31.340 M184.975 84.357 C 192.078 87.609,190.304 98.783,182.607 99.277 C 180.837 99.391,180.857 99.420,181.791 98.091 C 184.429 94.337,184.094 89.379,180.975 86.011 L 180.036 84.997 180.584 86.252 C 182.345 90.282,182.485 94.120,181.008 97.857 C 180.457 99.251,180.091 99.360,178.566 98.588 C 169.697 94.093,175.944 80.222,184.975 84.357 M43.408 150.098 C 43.348 150.195,41.954 150.337,40.311 150.414 C 38.668 150.490,36.923 150.612,36.434 150.683 L 35.544 150.813 35.597 169.761 L 35.651 188.709 37.846 188.770 C 39.054 188.803,40.254 188.778,40.512 188.714 L 40.983 188.596 40.983 181.219 L 40.983 173.843 44.171 173.840 C 47.266 173.837,50.392 173.480,50.392 173.131 C 50.392 173.036,50.770 172.895,51.233 172.817 C 51.695 172.739,52.189 172.566,52.330 172.433 C 52.472 172.299,52.934 172.030,53.357 171.835 C 54.238 171.428,56.874 168.998,56.874 168.592 C 56.874 168.444,56.951 168.322,57.044 168.322 C 57.248 168.322,57.919 166.966,57.919 166.555 C 57.919 166.396,58.008 166.235,58.117 166.196 C 58.882 165.926,58.914 157.031,58.149 157.031 C 58.069 157.031,57.879 156.678,57.726 156.247 C 57.446 155.455,56.194 153.732,55.658 153.402 C 55.499 153.303,55.216 153.045,55.029 152.827 C 54.843 152.609,54.621 152.431,54.537 152.431 C 54.452 152.431,54.049 152.204,53.640 151.926 C 53.230 151.648,52.521 151.358,52.062 151.280 C 51.604 151.203,51.228 151.063,51.228 150.970 C 51.228 150.727,48.807 150.340,47.291 150.340 C 46.570 150.340,46.001 150.247,46.001 150.131 C 46.001 149.878,43.563 149.847,43.408 150.098 M335.968 150.073 C 336.344 150.120,336.909 150.119,337.223 150.071 C 337.537 150.023,337.229 149.985,336.539 149.986 C 335.849 149.988,335.592 150.027,335.968 150.073 M74.743 150.601 C 74.689 150.745,74.668 159.378,74.698 169.786 L 74.752 188.709 85.078 188.763 C 96.991 188.826,95.975 189.029,95.975 186.579 C 95.975 183.745,96.808 184.004,87.708 184.004 L 79.875 184.004 79.875 167.172 L 79.875 150.340 77.359 150.340 C 75.539 150.340,74.816 150.412,74.743 150.601 M120.123 150.810 C 120.049 151.069,119.864 151.563,119.712 151.908 C 119.560 152.253,119.318 153.076,119.173 153.738 C 119.028 154.399,118.840 154.940,118.756 154.940 C 118.672 154.940,118.538 155.293,118.457 155.724 C 118.376 156.155,118.141 156.884,117.935 157.344 C 117.728 157.804,117.491 158.510,117.407 158.913 C 117.323 159.315,117.178 159.740,117.084 159.858 C 116.990 159.975,116.750 160.728,116.551 161.530 C 116.352 162.333,116.129 163.037,116.056 163.095 C 115.983 163.152,115.804 163.623,115.659 164.140 C 115.513 164.658,115.269 165.363,115.115 165.708 C 114.962 166.053,114.717 166.877,114.572 167.538 C 114.427 168.199,114.230 168.740,114.133 168.740 C 114.036 168.740,113.957 168.877,113.957 169.043 C 113.957 169.378,112.593 173.706,112.175 174.699 C 112.029 175.044,111.842 175.656,111.760 176.059 C 111.677 176.461,111.540 176.884,111.456 176.999 C 111.372 177.114,110.952 178.338,110.523 179.718 C 110.093 181.098,109.660 182.415,109.559 182.645 C 109.459 182.875,109.261 183.487,109.121 184.004 C 108.981 184.522,108.796 185.039,108.712 185.154 C 108.501 185.441,107.893 187.831,107.893 188.373 C 107.893 188.796,107.991 188.813,110.378 188.813 C 113.284 188.813,113.276 188.819,113.876 186.374 C 114.069 185.588,114.297 184.851,114.383 184.736 C 114.468 184.621,114.657 183.986,114.804 183.325 C 114.950 182.663,115.148 182.122,115.245 182.122 C 115.342 182.122,115.419 182.005,115.418 181.861 C 115.416 181.717,115.769 180.495,116.202 179.144 L 116.989 176.689 123.314 176.687 C 129.500 176.686,129.639 176.695,129.639 177.104 C 129.639 177.334,129.718 177.522,129.815 177.522 C 129.912 177.522,130.110 178.063,130.255 178.725 C 130.400 179.386,130.646 180.209,130.802 180.554 C 130.957 180.899,131.194 181.628,131.328 182.175 C 131.461 182.721,131.639 183.168,131.722 183.168 C 131.805 183.168,131.993 183.704,132.140 184.360 C 132.286 185.015,132.485 185.697,132.581 185.876 C 132.678 186.054,132.926 186.764,133.132 187.454 L 133.508 188.709 136.278 188.767 C 138.491 188.814,139.049 188.769,139.049 188.544 C 139.049 188.198,138.472 186.146,138.214 185.572 C 138.111 185.342,137.682 184.072,137.261 182.750 C 136.841 181.427,136.418 180.157,136.323 179.927 C 136.228 179.697,136.042 179.132,135.909 178.672 C 135.776 178.212,135.534 177.539,135.371 177.177 C 135.209 176.815,135.075 176.391,135.075 176.236 C 135.074 176.081,134.952 175.719,134.803 175.431 C 134.655 175.144,134.360 174.250,134.148 173.445 C 133.935 172.640,133.694 171.887,133.611 171.772 C 133.528 171.657,133.393 171.281,133.311 170.936 C 133.229 170.591,133.035 170.026,132.881 169.681 C 132.726 169.336,132.446 168.489,132.258 167.799 C 132.070 167.109,131.788 166.262,131.631 165.917 C 131.475 165.572,131.281 164.937,131.202 164.506 C 131.122 164.075,130.983 163.722,130.894 163.722 C 130.804 163.722,130.666 163.369,130.586 162.938 C 130.506 162.507,130.315 161.871,130.161 161.526 C 130.007 161.181,129.727 160.335,129.540 159.645 C 129.352 158.955,129.062 158.093,128.896 157.731 C 128.730 157.369,128.593 156.945,128.593 156.790 C 128.592 156.635,128.466 156.269,128.314 155.977 C 128.161 155.684,127.864 154.791,127.653 153.990 C 127.443 153.190,127.201 152.441,127.116 152.326 C 127.031 152.211,126.855 151.717,126.724 151.228 L 126.487 150.340 123.372 150.340 C 120.322 150.340,120.255 150.349,120.123 150.810 M145.411 150.616 C 145.353 150.768,145.333 151.827,145.366 152.968 L 145.426 155.044 151.124 155.100 L 156.822 155.156 156.822 171.991 L 156.822 188.826 159.383 188.768 L 161.945 188.709 161.998 171.932 L 162.052 155.156 167.748 155.100 L 173.445 155.044 173.505 152.866 C 173.549 151.264,173.494 150.642,173.296 150.517 C 172.800 150.202,145.533 150.299,145.411 150.616 M47.547 154.695 C 47.606 154.791,48.177 154.986,48.814 155.129 C 49.452 155.271,49.974 155.464,49.974 155.557 C 49.974 155.650,50.260 155.844,50.610 155.989 C 51.421 156.325,52.609 157.708,52.922 158.682 C 53.056 159.096,53.256 159.551,53.368 159.691 C 53.707 160.119,53.609 163.325,53.234 164.036 C 53.053 164.381,52.903 164.820,52.902 165.013 C 52.902 165.205,52.666 165.642,52.378 165.984 C 52.091 166.326,51.856 166.703,51.856 166.822 C 51.856 166.942,51.668 167.099,51.438 167.172 C 51.208 167.245,51.019 167.394,51.019 167.503 C 51.019 167.612,50.666 167.865,50.235 168.064 C 49.804 168.263,49.334 168.537,49.190 168.673 C 49.046 168.808,48.410 168.984,47.776 169.063 C 47.142 169.142,46.571 169.290,46.509 169.392 C 46.350 169.649,42.084 169.626,41.924 169.367 C 41.853 169.252,41.612 169.158,41.389 169.158 C 40.995 169.158,40.983 168.947,40.983 162.099 L 40.983 155.039 41.453 154.806 C 42.002 154.534,47.387 154.436,47.547 154.695 M123.873 158.391 C 124.079 159.485,124.316 160.421,124.399 160.473 C 124.482 160.524,124.675 161.088,124.828 161.726 C 124.981 162.364,125.170 162.886,125.248 162.886 C 125.327 162.886,125.509 163.427,125.655 164.088 C 125.800 164.749,126.044 165.572,126.198 165.917 C 126.352 166.262,126.587 166.968,126.720 167.486 C 126.853 168.003,127.040 168.522,127.135 168.638 C 127.230 168.755,127.425 169.320,127.567 169.893 C 127.709 170.466,127.892 170.983,127.974 171.040 C 128.056 171.098,128.189 171.451,128.271 171.824 L 128.418 172.504 123.256 172.504 C 118.426 172.504,118.103 172.480,118.236 172.138 C 118.314 171.937,118.481 171.325,118.608 170.779 C 118.735 170.233,118.903 169.786,118.983 169.786 C 119.062 169.786,119.247 169.221,119.394 168.531 C 119.540 167.841,119.728 167.277,119.812 167.277 C 119.895 167.277,120.084 166.712,120.230 166.022 C 120.376 165.332,120.559 164.767,120.636 164.767 C 120.714 164.767,120.950 164.085,121.162 163.251 C 121.373 162.418,121.616 161.641,121.701 161.526 C 121.787 161.411,121.976 160.753,122.123 160.063 C 122.270 159.373,122.460 158.714,122.546 158.599 C 122.632 158.484,122.770 158.014,122.852 157.554 C 123.170 155.789,123.422 155.995,123.873 158.391 " stroke="none" fill="#040404" fill-rule="evenodd"></path><path id="path2" d="M180.490 84.072 L 179.800 84.283 180.781 85.372 C 184.446 89.440,184.920 93.848,182.137 97.972 C 181.300 99.212,181.285 99.189,182.802 99.018 C 189.070 98.310,191.473 90.183,186.693 85.857 C 184.954 84.283,182.299 83.519,180.490 84.072 M177.935 85.077 C 172.880 88.253,173.585 96.497,179.091 98.600 C 182.050 99.730,182.709 90.624,180.025 85.677 C 179.276 84.296,179.209 84.277,177.935 85.077 " stroke="none" fill="#7bbb04" fill-rule="evenodd"></path><path id="path3" d="M155.358 51.806 C 156.336 52.729,157.172 53.450,157.217 53.408 C 157.299 53.330,155.930 52.062,154.417 50.816 C 153.957 50.437,154.381 50.883,155.358 51.806 M157.449 53.581 C 157.449 53.654,159.496 55.570,161.997 57.837 C 164.498 60.104,166.945 62.340,167.433 62.805 C 167.922 63.271,168.315 63.562,168.307 63.452 C 168.298 63.342,166.581 61.720,164.491 59.848 C 160.244 56.045,159.118 55.026,158.129 54.090 C 157.755 53.736,157.449 53.507,157.449 53.581 M168.758 63.905 C 168.768 64.006,170.757 65.869,173.179 68.045 C 175.600 70.222,177.545 71.912,177.500 71.802 C 177.455 71.692,176.383 70.663,175.118 69.516 C 173.853 68.369,171.900 66.596,170.779 65.576 C 169.658 64.557,168.748 63.805,168.758 63.905 M194.459 70.670 C 194.127 70.774,194.624 70.829,195.818 70.822 C 197.028 70.814,197.476 70.757,197.073 70.662 C 196.238 70.466,195.102 70.469,194.459 70.670 M191.793 71.424 C 190.802 71.857,190.962 71.955,192.054 71.583 C 192.572 71.407,192.995 71.224,192.995 71.177 C 192.995 71.019,192.475 71.126,191.793 71.424 M198.641 71.177 C 198.641 71.224,199.064 71.407,199.582 71.583 C 200.691 71.961,200.841 71.831,199.798 71.395 C 199.080 71.096,198.641 71.013,198.641 71.177 M178.559 72.818 C 179.072 73.364,179.519 73.811,179.552 73.811 C 179.709 73.811,179.543 73.623,178.620 72.757 L 177.627 71.824 178.559 72.818 M189.819 72.537 C 188.537 73.350,186.511 75.388,185.557 76.825 C 184.586 78.286,184.860 78.360,182.192 75.923 C 180.946 74.785,179.888 73.891,179.840 73.937 C 179.792 73.983,179.792 74.046,179.840 74.078 C 179.888 74.109,180.928 75.050,182.152 76.169 C 184.728 78.523,184.747 78.528,185.565 77.149 C 186.269 75.963,188.504 73.665,189.754 72.840 C 191.321 71.807,191.376 71.549,189.819 72.537 M201.947 72.789 C 202.671 73.262,203.307 73.606,203.360 73.552 C 203.468 73.445,201.084 71.929,200.807 71.929 C 200.710 71.929,201.223 72.316,201.947 72.789 M203.953 73.989 C 204.395 74.488,204.496 74.533,204.496 74.236 C 204.496 74.125,204.284 73.923,204.025 73.788 C 203.557 73.542,203.557 73.543,203.953 73.989 M204.705 74.615 C 204.705 74.712,204.907 74.971,205.155 75.190 L 205.606 75.588 205.236 75.013 C 204.854 74.420,204.705 74.308,204.705 74.615 M205.896 76.422 C 206.087 76.823,206.280 77.114,206.326 77.069 C 206.421 76.973,205.787 75.693,205.644 75.693 C 205.591 75.693,205.704 76.021,205.896 76.422 M206.456 77.629 C 206.850 78.852,207.048 81.065,206.957 83.254 C 206.901 84.615,206.903 85.729,206.962 85.729 C 207.020 85.729,207.585 85.204,208.217 84.562 C 208.848 83.920,209.728 83.155,210.171 82.862 C 211.146 82.217,211.236 82.004,210.312 82.529 C 209.946 82.736,209.069 83.471,208.363 84.161 L 207.078 85.416 207.171 83.099 C 207.263 80.787,206.971 78.156,206.556 77.569 C 206.376 77.315,206.359 77.325,206.456 77.629 M142.813 78.234 C 142.813 78.310,143.146 78.771,143.554 79.259 C 143.962 79.748,144.258 80.251,144.210 80.377 C 143.910 81.179,143.879 81.618,144.164 81.025 C 144.584 80.152,144.569 80.095,143.640 79.038 C 143.186 78.521,142.813 78.159,142.813 78.234 M214.797 80.691 C 213.291 80.949,213.635 81.025,216.316 81.025 C 217.737 81.025,218.741 80.966,218.546 80.894 C 217.901 80.657,215.697 80.538,214.797 80.691 M212.075 81.542 C 211.587 81.764,211.187 81.993,211.187 82.052 C 211.187 82.111,211.587 81.989,212.075 81.781 C 212.564 81.573,213.105 81.349,213.278 81.283 C 213.556 81.176,213.556 81.161,213.278 81.150 C 213.105 81.144,212.564 81.320,212.075 81.542 M219.132 81.200 C 219.132 81.254,219.556 81.443,220.073 81.620 C 221.019 81.942,221.423 81.899,220.544 81.570 C 219.659 81.239,219.132 81.101,219.132 81.200 M143.359 82.721 C 143.174 83.265,143.059 83.745,143.103 83.790 C 143.147 83.834,143.335 83.426,143.520 82.882 C 143.705 82.339,143.820 81.858,143.776 81.814 C 143.732 81.770,143.544 82.178,143.359 82.721 M221.641 82.318 C 221.929 82.519,222.529 83.062,222.976 83.526 C 223.422 83.990,223.689 84.182,223.569 83.952 C 223.277 83.394,222.288 82.492,221.641 82.194 L 221.119 81.953 221.641 82.318 M145.270 84.859 C 143.329 86.018,142.322 86.723,143.440 86.141 C 145.279 85.182,147.716 83.628,147.360 83.640 C 147.331 83.641,146.391 84.189,145.270 84.859 M181.341 83.788 C 181.659 83.836,182.129 83.835,182.387 83.785 C 182.644 83.736,182.384 83.696,181.809 83.698 C 181.234 83.700,181.023 83.740,181.341 83.788 M147.622 83.933 C 147.622 84.137,151.553 88.820,151.883 89.008 C 152.012 89.082,151.922 88.915,151.683 88.638 C 151.445 88.361,150.511 87.240,149.608 86.147 C 147.527 83.629,147.622 83.734,147.622 83.933 M142.633 84.505 C 142.486 84.740,142.411 84.980,142.467 85.036 C 142.523 85.092,142.679 84.933,142.812 84.684 C 143.128 84.093,142.982 83.947,142.633 84.505 M179.613 84.650 C 179.613 84.888,180.226 85.660,180.234 85.431 C 180.237 85.325,180.495 85.466,180.807 85.745 C 181.358 86.238,181.357 86.231,180.755 85.486 C 180.140 84.725,179.613 84.339,179.613 84.650 M224.216 85.499 C 224.468 86.062,224.702 86.445,224.738 86.351 C 224.805 86.171,223.998 84.475,223.846 84.475 C 223.798 84.475,223.965 84.935,224.216 85.499 M185.781 84.827 C 186.596 85.647,188.005 86.782,187.454 86.174 C 187.109 85.794,186.545 85.287,186.200 85.049 C 185.855 84.811,185.666 84.711,185.781 84.827 M224.933 88.029 C 224.994 88.777,225.078 89.428,225.120 89.476 C 225.274 89.652,225.161 87.493,224.995 87.088 C 224.894 86.843,224.869 87.231,224.933 88.029 M174.516 88.978 C 174.444 89.165,174.394 89.475,174.404 89.667 C 174.414 89.859,174.505 89.738,174.606 89.399 C 174.803 88.739,174.733 88.412,174.516 88.978 M182.764 88.761 C 182.764 88.876,182.899 89.205,183.063 89.493 C 183.228 89.780,183.362 89.922,183.362 89.807 C 183.362 89.692,183.228 89.362,183.063 89.075 C 182.899 88.787,182.764 88.646,182.764 88.761 M153.244 90.757 C 153.864 91.499,154.851 92.688,155.436 93.400 C 156.022 94.111,156.539 94.654,156.586 94.608 C 156.683 94.511,152.727 89.780,152.361 89.555 C 152.227 89.473,152.624 90.014,153.244 90.757 M230.597 89.695 C 230.060 89.792,229.448 89.982,229.238 90.116 C 228.925 90.316,228.920 90.341,229.208 90.252 C 230.900 89.731,233.052 89.646,234.371 90.048 C 234.667 90.139,234.666 90.123,234.360 89.925 C 233.874 89.611,231.771 89.482,230.597 89.695 M226.701 91.158 C 225.758 91.614,224.987 92.039,224.987 92.102 C 224.987 92.165,225.622 91.904,226.398 91.522 C 227.175 91.140,228.045 90.722,228.332 90.592 C 228.620 90.463,228.756 90.351,228.635 90.343 C 228.514 90.336,227.644 90.702,226.701 91.158 M235.799 90.863 C 236.168 91.154,236.717 91.694,237.018 92.063 C 237.320 92.432,237.470 92.538,237.352 92.298 C 237.120 91.829,235.542 90.328,235.284 90.332 C 235.198 90.333,235.430 90.572,235.799 90.863 M224.296 91.273 C 224.105 91.674,223.991 92.002,224.044 92.002 C 224.187 92.002,224.822 90.722,224.726 90.626 C 224.681 90.581,224.487 90.872,224.296 91.273 M189.493 91.479 C 189.496 91.939,189.539 92.103,189.589 91.843 C 189.639 91.583,189.637 91.206,189.584 91.006 C 189.532 90.807,189.491 91.019,189.493 91.479 M183.655 92.525 C 183.656 93.330,183.693 93.634,183.739 93.200 C 183.784 92.766,183.783 92.107,183.737 91.736 C 183.691 91.365,183.654 91.720,183.655 92.525 M144.528 91.846 C 144.408 91.991,144.254 92.391,144.185 92.735 C 144.078 93.275,144.115 93.247,144.454 92.525 L 144.846 91.688 145.117 92.578 C 145.266 93.068,145.427 93.430,145.474 93.383 C 145.604 93.253,145.068 91.584,144.896 91.584 C 144.813 91.584,144.647 91.702,144.528 91.846 M181.978 92.734 C 181.979 93.424,182.018 93.681,182.065 93.305 C 182.111 92.929,182.110 92.365,182.063 92.051 C 182.015 91.736,181.977 92.044,181.978 92.734 M223.220 92.865 C 222.917 93.224,222.709 93.558,222.758 93.606 C 222.860 93.709,224.778 92.447,224.778 92.277 C 224.778 92.214,224.546 92.315,224.262 92.501 C 223.617 92.924,223.393 92.934,223.732 92.525 C 223.876 92.352,223.942 92.211,223.881 92.211 C 223.820 92.211,223.522 92.505,223.220 92.865 M237.925 93.588 C 238.042 93.827,238.278 94.140,238.451 94.283 C 239.211 94.914,239.308 97.498,238.688 100.575 C 238.630 100.863,238.734 100.674,238.920 100.157 C 239.408 98.795,239.429 95.397,238.954 94.711 C 238.297 93.764,237.687 93.098,237.925 93.588 M145.653 94.093 C 145.729 94.381,145.917 94.898,146.070 95.243 L 146.350 95.870 146.225 95.243 C 146.156 94.898,145.968 94.381,145.808 94.093 L 145.515 93.570 145.653 94.093 M175.587 96.079 C 175.826 96.424,176.332 96.989,176.713 97.334 C 177.225 97.797,177.166 97.688,176.491 96.916 C 175.257 95.506,175.076 95.338,175.587 96.079 M146.381 95.990 C 146.260 97.017,147.081 98.045,148.107 98.152 C 150.282 98.377,159.749 98.528,159.749 98.337 C 159.749 98.232,159.268 97.634,158.681 97.008 L 157.613 95.870 158.613 97.097 L 159.614 98.324 155.238 98.190 C 147.693 97.960,147.209 97.905,146.977 97.258 C 146.702 96.494,146.398 95.847,146.381 95.990 M245.060 96.473 C 245.060 96.688,244.757 96.959,244.306 97.148 C 243.891 97.321,243.600 97.512,243.659 97.571 C 243.718 97.630,244.063 97.526,244.424 97.339 C 245.081 96.999,245.437 96.491,245.190 96.245 C 245.119 96.173,245.060 96.276,245.060 96.473 M180.891 97.671 C 180.762 98.040,180.693 98.379,180.738 98.424 C 180.783 98.469,180.925 98.203,181.054 97.834 C 181.182 97.464,181.251 97.125,181.207 97.080 C 181.162 97.036,181.020 97.301,180.891 97.671 M241.790 98.551 C 241.116 99.047,240.126 99.942,239.590 100.539 C 238.984 101.214,238.574 101.525,238.508 101.361 C 238.450 101.216,238.395 101.322,238.386 101.596 C 238.372 102.015,238.608 101.847,239.885 100.526 C 240.719 99.663,241.871 98.665,242.446 98.307 C 243.021 97.949,243.385 97.654,243.254 97.652 C 243.122 97.649,242.464 98.054,241.790 98.551 M183.900 98.926 C 183.056 99.240,182.995 99.290,183.586 99.188 C 183.988 99.119,184.553 98.936,184.841 98.781 C 185.557 98.397,185.154 98.459,183.900 98.926 M153.267 115.369 C 153.267 115.455,155.807 115.498,158.913 115.463 L 164.558 115.402 164.573 119.541 C 164.581 121.817,164.677 123.868,164.786 124.098 C 164.940 124.423,164.960 124.359,164.876 123.811 C 164.816 123.423,164.767 121.329,164.767 119.158 L 164.767 115.212 159.017 115.212 C 155.855 115.212,153.267 115.282,153.267 115.369 M176.686 115.368 C 176.686 115.454,186.683 115.525,198.902 115.525 L 221.119 115.525 221.232 119.916 L 221.345 124.307 221.336 119.812 L 221.328 115.316 199.007 115.263 C 186.730 115.234,176.686 115.281,176.686 115.368 M233.142 116.989 C 233.142 117.967,233.212 118.766,233.298 118.767 C 233.385 118.767,233.455 118.038,233.455 117.146 L 233.455 115.525 234.465 115.461 C 235.037 115.424,235.605 115.505,235.776 115.647 C 236.023 115.852,236.054 115.835,235.947 115.555 C 235.844 115.286,235.525 115.212,234.478 115.212 L 233.142 115.212 233.142 116.989 M176.405 124.270 C 176.316 124.709,176.200 125.227,176.148 125.420 C 176.095 125.613,176.200 125.454,176.380 125.066 C 176.561 124.678,176.676 124.160,176.638 123.916 C 176.589 123.606,176.518 123.714,176.405 124.270 M221.522 124.935 C 221.604 125.280,221.761 125.654,221.871 125.766 C 221.981 125.879,221.960 125.643,221.825 125.244 C 221.509 124.307,221.330 124.126,221.522 124.935 M165.097 125.248 C 165.459 126.544,167.155 128.350,168.322 128.682 C 168.618 128.767,168.437 128.591,167.904 128.277 C 166.739 127.591,166.331 127.159,165.558 125.797 C 165.225 125.208,165.017 124.961,165.097 125.248 M175.504 126.477 C 175.060 127.167,174.144 127.965,173.236 128.451 C 172.891 128.635,172.703 128.790,172.818 128.794 C 173.449 128.817,175.306 127.343,175.770 126.451 C 176.163 125.696,175.995 125.713,175.504 126.477 M222.250 126.468 C 222.363 126.679,222.619 126.984,222.820 127.147 C 223.046 127.331,222.995 127.185,222.688 126.764 C 222.138 126.014,221.932 125.875,222.250 126.468 M170.259 129.162 C 170.577 129.210,171.047 129.209,171.304 129.159 C 171.562 129.110,171.302 129.070,170.727 129.072 C 170.152 129.073,169.941 129.114,170.259 129.162 M188.447 150.494 C 189.109 150.536,190.191 150.536,190.852 150.494 C 191.513 150.453,190.972 150.419,189.650 150.419 C 188.327 150.419,187.786 150.453,188.447 150.494 M211.037 150.495 C 211.703 150.536,212.738 150.536,213.337 150.494 C 213.937 150.452,213.393 150.418,212.128 150.418 C 210.863 150.418,210.372 150.453,211.037 150.495 M281.809 150.495 C 282.527 150.535,283.704 150.535,284.422 150.495 C 285.141 150.454,284.553 150.420,283.116 150.420 C 281.678 150.420,281.090 150.454,281.809 150.495 M305.018 150.494 C 305.622 150.536,306.610 150.536,307.214 150.494 C 307.818 150.452,307.324 150.417,306.116 150.417 C 304.909 150.417,304.415 150.452,305.018 150.494 M188.351 188.759 C 189.074 188.800,190.204 188.800,190.860 188.759 C 191.517 188.717,190.925 188.684,189.545 188.684 C 188.165 188.685,187.628 188.718,188.351 188.759 M211.030 188.759 C 211.691 188.800,212.773 188.800,213.434 188.759 C 214.096 188.717,213.555 188.683,212.232 188.683 C 210.910 188.683,210.369 188.717,211.030 188.759 M281.600 188.758 C 282.203 188.801,283.191 188.801,283.795 188.758 C 284.399 188.716,283.905 188.682,282.697 188.682 C 281.490 188.682,280.996 188.716,281.600 188.758 M304.608 188.759 C 305.332 188.800,306.461 188.800,307.117 188.759 C 307.774 188.717,307.182 188.684,305.802 188.684 C 304.422 188.685,303.885 188.718,304.608 188.759 " stroke="none" fill="#234b04" fill-rule="evenodd"></path></g></svg>